{"title":"Nari_Narain_-_Hisham_Abbas_with_Jayashri_[Sbyky]","uid":7080569,"size":70262822,"categoryP":"video","categoryS":"music_videos","magnet":"?xt=urn:btih:555d2ec7821605942074a5e55b14fd9d583b71a0&amp;dn=Nari_Narain_-_Hisham_Abbas_with_Jayashri_%5BSbyky%5D&amp;tr=udp%3A%2F%2Ftracker.openbittorrent.com%3A80&amp;tr=udp%3A%2F%2Fopen.demonii.com%3A1337&amp;tr=udp%3A%2F%2Ftracker.coppersurfer.tk%3A6969&amp;tr=udp%3A%2F%2Fexodus.desync.com%3A6969","seeders":1,"leechers":3,"uploader":"Sbyky","files":-1,"time":1331013119,"description":"[img] http://www.shotpix.com/images/25464032422865967418.jpg [/img]\n\nGeneral\nComplete name                            : Nari Narain - Hisham Abbas with Jayashri.avi\nFormat                                   : AVI\nFormat/Info                              : Audio Video Interleave\nFile size                                : 67.0 MiB\nDuration                                 : 4mn 22s\nOverall bit rate                         : 2 140 Kbps\nWriting application                      : Lavf52.39.1\n\nVideo\nID                                       : 0\nFormat                                   : xvid\nCodec ID                                 : xvid\nDuration                                 : 4mn 22s\nBit rate                                 : 2 064 Kbps\nWidth                                    : 610 pixels\nHeight                                   : 472 pixels\nDisplay aspect ratio                     : 1.292\nFrame rate                               : 25.000 fps\nBits/(Pixel*Frame)                       : 0.287\nStream size                              : 64.5 MiB (96%)\n\nAudio\nID                                       : 1\nFormat                                   : MPEG Audio\nFormat version                           : Version 1\nFormat profile                           : Layer 3\nMode                                     : Joint stereo\nCodec ID                                 : 55\nCodec ID/Hint                            : MP3\nDuration                                 : 4mn 22s\nBit rate mode                            : Constant\nBit rate                                 : 64.0 Kbps\nChannel(s)                               : 2 channels\nSampling rate                            : 44.1 KHz\nCompression mode                         : Lossy\nStream size                              : 2.00 MiB (3%)\nAlignment                                : Aligned on interleaves\nInterleave, duration                     : 26 ms (0.65 video frame)\n\n[img] http://www.shotpix.com/images/15810622012594229828.gif [/img]","torrent":{"xt":"urn:btih:555d2ec7821605942074a5e55b14fd9d583b71a0","amp;dn":"Nari_Narain_-_Hisham_Abbas_with_Jayashri_%5BSbyky%5D","amp;tr":["udp%3A%2F%2Ftracker.openbittorrent.com%3A80","udp%3A%2F%2Fopen.demonii.com%3A1337","udp%3A%2F%2Ftracker.coppersurfer.tk%3A6969","udp%3A%2F%2Fexodus.desync.com%3A6969"],"infoHash":"555d2ec7821605942074a5e55b14fd9d583b71a0","infoHashBuffer":{"type":"Buffer","data":[85,93,46,199,130,22,5,148,32,116,165,229,91,20,253,157,88,59,113,160]},"announce":[],"urlList":[]}}